<svg version="1.2" xmlns="http://www.w3.org/2000/svg" viewBox="-400.0000000000002 400 1200.0000000000005 400" width="1202" height="400"><style>.a{opacity:.98}</style><path fill="#E2E8F0" fill-rule="evenodd" class="a" d="m-190.7 417c-0.5 1-3.6 6-6.7 11.2-3.2 5.2-8.2 13.3-11.1 18.1-2.9 4.8-5.6 9.1-5.9 9.4-0.5 0.6-0.9 0.4-3.2-1.3-1.5-1.1-6.3-4.7-10.6-7.9-4.4-3.2-11.5-8.4-15.8-11.6-4.3-3.1-8.6-6.3-9.5-7-0.9-0.6-1.7-1.1-1.8-1.1-0.1 0.1 3.8 16.2 8.7 35.7l8.8 35.7h96.8c5.1-21.5 8.9-37.3 11.8-48.9 2.8-11.6 5.2-21.5 5.4-21.9 0.2-0.8 0-0.7-1.6 0.4-1.1 0.8-10.3 7.5-20.5 15.1-16.1 11.8-18.6 13.5-19 12.9-0.2-0.4-5.7-9.7-12.2-20.7-6.5-10.9-11.9-19.9-12.1-19.9-0.3 0-0.9 0.8-1.5 1.8zm-0.8 25.6c1-1.7 2-3.1 2.2-3.1 0.3 0 2.2 3 4.3 6.7 2.1 3.7 6.6 11.3 9.9 16.8 3.4 5.5 6.4 10.3 6.7 10.7 0.5 0.7 0.9 0.5 4.4-2.1 2.1-1.6 7.5-5.6 11.9-8.8 4.4-3.3 8-5.9 8.1-5.8 0.1 0.1-1.2 5.7-3 12.4-1.7 6.7-3.2 12.8-3.6 15.3h-77.4l-3.5-13.7c-1.9-7.6-3.4-13.9-3.3-14 0.1-0.1 0.6 0.2 1.1 0.7 0.6 0.5 5.2 4.1 10.4 7.9 5.2 3.9 10 7.4 10.8 7.9 1.3 0.9 1.4 1 2 0.2 0.3-0.4 4.3-6.8 8.9-14.4 4.5-7.5 9.1-15 10.1-16.7zm-76.7 47.2c-0.8 0.5-1.8 1.5-2.2 2.3-0.5 0.8-0.9 2-0.9 2.8 0 0.7 0.2 1.9 0.5 2.5 0.2 0.7 0.8 1.6 1.3 2.2 0.6 0.6 5.1 4.6 10.1 9 5.1 4.4 12.5 10.7 16.5 14.1 4 3.4 7.8 6.6 8.4 7.1l1.2 1c-3.1 4.5-4.7 7.3-5.6 9.2-0.9 1.8-2 4.7-2.5 6.4-0.5 1.6-1.2 4.6-1.6 6.6-0.5 2.3-0.7 5.6-0.7 9.4 0 3.6 0.3 7.1 0.7 9.6 0.4 2.1 1.1 4.9 1.6 6.3 0.4 1.3 0.8 2.5 0.7 2.6-0.1 0.1-0.8-0.3-1.6-1-0.8-0.6-4.5-3.3-8.1-5.9-3.6-2.6-12.6-9-19.8-14.2-7.3-5.2-17.7-12.7-23.1-16.6-5.4-3.8-15.3-11-22.1-15.8-6.9-4.8-14.6-10.3-17.2-12.1-4-2.7-5-3.2-6-3-0.6 0.1-9.8 3.5-20.4 7.4-10.5 3.9-21.7 8.1-24.9 9.2-3.2 1.1-5.9 2.1-6.1 2.3-0.1 0.1 0.6 2.7 1.7 5.8 1 3 3.9 11.1 6.4 17.9 2.4 6.8 6.1 16.9 8.1 22.4 2 5.5 4 10.3 4.3 10.7 0.4 0.4 6.5 3.7 13.5 7.4 7.1 3.7 14.4 7.5 16.2 8.5 1.9 1 3.5 1.8 3.6 1.9 0 0-0.8 1-1.8 2.2-0.9 1.1-4.6 5-8.1 8.7-3.4 3.7-6.5 7.3-6.9 8.1-0.3 0.7-1.9 6.2-3.6 12.2-1.7 6-4 14.5-5.2 18.9-1.3 4.4-2.2 8.1-2.1 8.2 0.2 0.1 5 1.1 10.9 2.3 5.9 1.2 18.1 3.5 27.1 5.2 9 1.6 19.1 3.5 22.4 4.1l6 1.1c1.6-1.6 8-7.6 15.1-14.2 7.2-6.7 16.8-15.7 21.4-20 4.5-4.4 9.9-9.4 11.9-11.2 2-1.8 3.8-3.3 3.9-3.3 0.2 0-0.2 1.4-1 3.3-0.7 1.8-1.9 5.8-2.7 8.8-0.8 3.1-1.7 7.6-2.1 10-0.4 2.5-0.8 8-1 12.2-0.1 4.6 0 9.8 0.3 12.8 0.2 2.8 0.9 7.5 1.5 10.4 0.6 3 2 7.9 3 10.9 1 3.1 2.8 7.7 4 10.3 1.2 2.5 3.3 6.5 4.7 8.7 1.3 2.2 4.1 6.4 6.2 9.2 2.1 2.8 6.5 7.8 9.6 11 3.2 3.3 7.7 7.4 10.1 9.3 2.3 1.8 5.9 4.6 8 6l3.8 2.7c5.1 18.5 7.6 27.6 8.9 32.1 1.3 4.5 2.4 8.2 2.5 8.2 0.1 0 1.4-4.2 2.9-9.3 1.4-5.1 3.7-13.3 5-18.2 1.3-4.9 2.7-9.9 3-11.1 0.6-2 0.9-2.3 4.1-4.5 1.9-1.3 5.4-3.9 7.8-5.7 2.4-1.9 7.1-6.2 10.5-9.6 3.4-3.4 7.9-8.5 10-11.4 2.1-2.8 4.9-6.8 6.2-8.9 1.2-2.1 2.9-5.3 3.8-7 0.9-1.8 2.3-5.2 3.2-7.5 0.9-2.4 2.3-6.9 3.1-10 0.8-3.2 1.8-7.6 2.1-9.8 0.6-3 0.8-6.8 0.8-14.1 0-6.1-0.2-11.6-0.6-14.1-0.3-2.2-1-6.3-1.6-9-0.6-2.7-1.8-7-2.7-9.6-0.9-2.5-1.8-5-2-5.5q-0.4-0.8 0.1-0.6c0.3 0.1 4.6 4 9.6 8.7 5 4.7 15.8 14.7 23.9 22.2 8 7.4 15.6 14.5 16.8 15.6l2.1 2.1c9.3-1.6 16.1-2.9 21.2-3.8 5-0.9 16.3-3.1 25.1-4.7 8.8-1.7 16.9-3.3 18.1-3.6 1.9-0.4 2-0.6 1.9-1.6-0.1-0.6-2.3-8.2-4.7-17-2.5-8.8-4.9-17.3-5.3-18.8-0.7-2.7-1-3.1-8.3-10.9-4.1-4.4-7.9-8.5-8.5-8.9-0.5-0.5-0.9-1-0.9-1.2 0-0.2 5.1-2.9 11.2-6.2 6.2-3.2 13.6-7.1 16.6-8.7 2.9-1.6 5.5-3.2 5.8-3.5 0.2-0.3 1.7-4 3.3-8.4 1.5-4.3 4.6-13 6.9-19.2 2.2-6.2 5.4-15 7.1-19.6 1.6-4.6 2.9-8.6 2.8-8.9-0.1-0.4-3.4-1.9-8.1-3.6-4.3-1.6-15.4-5.8-24.7-9.2-9.2-3.5-17.5-6.5-18.3-6.6-1.3-0.3-1.8-0.1-3.8 1.3-1.3 0.9-7.2 5-13 9.1-5.9 4.2-13.3 9.4-16.5 11.7-3.1 2.3-13.2 9.6-22.4 16.2-9.1 6.6-20.3 14.7-24.7 17.9-4.5 3.3-10.1 7.4-12.6 9.2-2.5 1.8-4.5 3.2-4.6 3.1-0.1-0.2 0.2-1.6 0.7-3.1 0.4-1.5 1.1-4.2 1.4-6 0.3-1.7 0.6-5.8 0.5-9.1 0-3.8-0.2-7.3-0.7-9.6-0.4-2-1.2-5.2-1.8-7.1-0.6-1.8-2-5-3-7-1-2-2.5-4.6-3.3-5.9l-1.6-2.2c1.8-1.5 6.8-5.6 12.2-10.2 5.4-4.6 13.2-11.2 17.4-14.8 4.1-3.6 7.8-7.1 8.2-7.8 0.3-0.8 0.6-2 0.6-2.9 0-0.9-0.4-2.2-0.8-3-0.5-0.8-1.5-1.8-2.3-2.3-0.7-0.4-2.1-0.8-3.1-0.8-1.1 0-2.2 0.3-3.4 1.2-1 0.6-5.8 4.5-10.7 8.7-4.9 4.1-12.9 10.8-17.7 15-4.9 4.1-9 7.5-9.1 7.5-0.1 0-1.4-0.8-2.9-1.8-1.5-1.1-3.9-2.6-5.4-3.4-1.5-0.8-4.6-2.2-6.9-3-2.2-0.9-6-2-8.5-2.5-3.6-0.7-5.9-0.9-11.7-0.9-5.7 0-8.2 0.2-11.5 0.9-2.4 0.5-5.7 1.4-7.5 2-1.8 0.6-4.4 1.8-6 2.5-1.5 0.8-4.4 2.5-6.4 3.8-2 1.4-3.8 2.4-4 2.3-0.3-0.2-8.4-7.1-18.1-15.5-9.8-8.4-18.3-15.6-19-16-0.7-0.4-2.1-0.8-3-0.8-1 0-2.3 0.4-3.1 0.8zm69.4 33.3c3-0.7 4.9-0.8 10.5-0.7 5.8 0.2 7.3 0.4 10.6 1.3 2.1 0.7 5.2 1.8 6.9 2.6 1.6 0.7 4.2 2.2 5.7 3.2 1.5 1 4 3 5.5 4.5 1.5 1.4 3.5 3.7 4.5 5.1 1 1.4 2.5 3.9 3.3 5.6 0.9 1.6 1.9 4.2 2.4 5.7 0.5 1.5 1.1 3.9 1.4 5.4 0.2 1.4 0.4 4.5 0.4 7 0 2.5-0.3 6-0.7 7.9-0.4 1.9-1.3 4.9-2 6.8-0.7 1.9-2.4 5.1-3.7 7-1.4 2-4 5.1-5.8 6.8-1.9 1.8-4.8 4-6.6 5-1.7 1.1-4.7 2.5-6.5 3.2-1.8 0.7-4.7 1.6-6.4 2-2.2 0.5-5 0.7-9.9 0.7-4.7 0-7.7-0.2-9.8-0.7-1.6-0.4-4.6-1.3-6.6-2-2-0.7-5.2-2.2-7-3.3-2.4-1.3-4.7-3.2-7.3-5.9-2.1-2.1-4.5-4.9-5.2-6.2-0.8-1.3-2.1-4-3-6-0.8-1.9-1.9-5.3-2.3-7.4-0.4-2.1-0.8-5.5-0.8-7.5 0-2 0.3-5.4 0.7-7.7 0.4-2.2 1.2-5.5 1.9-7.2 0.7-1.8 2.1-4.7 3.1-6.5 1.1-1.8 3.3-4.7 4.9-6.4 1.5-1.6 3.9-3.8 5.2-4.8 1.3-1 3.4-2.4 4.7-3.1 1.3-0.7 3.7-1.9 5.3-2.5 1.6-0.6 4.6-1.5 6.6-1.9zm-146.7 5.2c2.9-1.2 5.5-2.1 5.8-2.2 0.3 0 7.1 4.7 15 10.3 7.9 5.7 28.2 20.2 45.1 32.3 16.9 12.1 32.6 23.3 39.2 27.8l-85.3-0.1-34-17.2-5-14.3c-2.8-7.8-6-16.9-9.4-26l1-0.4c0.5-0.2 5.7-2.1 11.6-4.2 5.8-2.2 13-4.9 16-6zm304.1-0.8c1.1-0.8 2-1.4 2.2-1.4 0.1 0 4.8 1.7 10.4 3.8 5.6 2.1 12.9 4.8 16.2 6 3.3 1.3 6.4 2.4 7.9 3l-1.7 4.6c-0.9 2.5-4.1 11.4-7.1 19.7-3 8.3-5.6 15.4-5.9 15.7-0.2 0.3-3.1 2-6.4 3.7-3.3 1.7-10.6 5.5-26.7 13.9h-85.3l16.8-12c9.2-6.6 21.4-15.4 27.2-19.6 5.7-4.1 19.4-13.9 30.5-21.8 11-7.9 20.9-14.9 21.9-15.6zm-185 78.3c0.8-1.1 1.4-2.1 1.5-2.1 0 0 1.3 0.9 2.8 2 1.4 1.1 4.4 2.8 6.5 3.8 2.1 1 5.4 2.3 7.3 2.9 2 0.7 5.2 1.5 7.3 1.8 2 0.4 6.4 0.8 9.7 0.9 4.3 0.2 7.3 0.1 10.9-0.4 2.7-0.4 6.8-1.3 9.1-2 2.4-0.8 6-2.2 8.1-3.3 2.1-1.1 5.1-2.8 9.3-5.9l0.8 1.1c0.4 0.6 1.6 2.5 2.5 4.3 0.9 1.7 2.2 4.9 2.8 7 0.6 2.1 1.1 4.7 1.1 5.8 0 1-0.4 2.8-0.8 4q-0.7 2.1-3.3 4.9c-1.4 1.5-3.7 3.5-5.1 4.4-1.4 1-3.7 2.3-5.1 2.9-1.4 0.6-3.8 1.6-5.4 2.1-1.5 0.5-4.6 1.3-6.8 1.7-2.2 0.5-6.8 1-10.2 1.3-4.4 0.3-7.9 0.3-12 0-3.1-0.3-7.6-0.8-9.8-1.3-2.2-0.4-5.6-1.3-7.4-1.9-1.9-0.7-4.9-1.9-6.7-2.8-1.7-0.9-4.3-2.6-5.7-3.6-1.4-1.1-3.3-2.9-4.2-4-0.8-1.1-1.9-2.8-2.2-3.9-0.4-1.1-0.7-2.8-0.7-3.8 0-1.1 0.4-3.4 0.8-5.2 0.5-1.7 1.5-4.4 2.2-5.9 0.8-1.6 2-3.7 2.7-4.8zm-95.9 3.9h39.1c21.6 0 39.2 0.1 39.2 0.1 0 0.1-4.4 4.3-9.9 9.3-5.5 5-12.8 11.9-16.4 15.1-3.5 3.3-11.8 11.1-30.4 28.4l-3.8-0.6c-2-0.4-9.4-1.7-16.3-3-6.9-1.3-15.8-2.9-19.8-3.7-4-0.8-7.3-1.4-7.3-1.4-0.1 0 1.3-5.3 3.1-11.8 3-10.8 3.3-11.8 4.8-13.4 0.8-1 5.2-5.6 9.6-10.4zm187.1 0.1c-0.1 0 17.6-0.1 79.1-0.1l5.6 6.1c3.1 3.3 7.4 8 9.5 10.3 3.4 3.8 4 4.7 4.7 7.1 0.4 1.5 1.9 6.5 3.2 11.1 1.3 4.6 2.5 8.6 2.6 8.9 0.2 0.6-1.4 1-8.8 2.4-5 1-15.8 3-38.7 7.2l-3.3-3.2c-1.9-1.8-10.1-9.5-18.3-17.1-8.2-7.6-17-15.7-19.6-18.1-2.6-2.3-7.2-6.5-10.2-9.3-3.1-2.8-5.7-5.2-5.8-5.3zm-101.3 31.8c0.2-0.2 1.1 0.3 2 1.1 1 0.8 3 2.2 4.4 3.1 1.4 0.9 4.1 2.3 6 3.2 1.8 0.8 4.9 2.1 6.8 2.7 1.9 0.6 5.1 1.5 7.2 2 2.1 0.5 6.1 1.2 8.8 1.5 2.7 0.3 8 0.6 11.8 0.6 3.8 0 8.8-0.2 11.1-0.5 2.3-0.2 6.1-0.8 8.4-1.3 2.4-0.5 6.3-1.5 8.8-2.3 2.4-0.8 6.2-2.3 8.3-3.3 2.1-1.1 5.4-3 7.2-4.3 1.9-1.3 3.5-2.3 3.7-2.1 0.1 0.1 0.5 1.9 0.9 3.9 0.4 2.1 1.1 6 2 13.9l-1.1 1c-0.7 0.6-2.3 1.8-3.8 2.8-1.4 1-4.4 2.6-6.8 3.7-2.3 1.1-6.1 2.6-8.4 3.4-2.3 0.7-6.5 1.8-9.4 2.4-2.9 0.5-7.7 1.2-10.8 1.5-3.4 0.3-8.5 0.4-13.4 0.3-4.3-0.2-9.9-0.6-12.4-1-2.4-0.3-6.1-1-8.1-1.5-2-0.5-5.4-1.4-7.6-2.2-2.3-0.7-6-2.2-8.4-3.3-2.3-1.2-5.6-3.1-10.2-6.7l0.1-2.7c0.1-1.5 0.7-5.7 1.4-9.2 0.7-3.5 1.4-6.5 1.5-6.7zm-2.6 36.7c-0.2-1.1-0.2-2 0-2 0.1 0 0.8 0.3 1.4 0.8 0.7 0.4 2.8 1.6 4.8 2.5 2 0.9 6 2.5 9 3.4 2.9 1 7.7 2.2 10.6 2.8 3 0.6 7.5 1.3 10.1 1.6 2.5 0.3 9 0.6 14.2 0.6 5.3 0 11.8-0.3 14.3-0.6 2.6-0.3 7-1 9.8-1.6 2.9-0.6 7.5-1.8 10.3-2.7 2.8-1 7.4-2.9 10.2-4.3 2.8-1.4 5.2-2.5 5.2-2.4 0.1 0-0.3 1.9-0.7 4.1-0.5 2.3-1.5 6.2-2.2 8.8-1.2 4.1-1.6 4.9-3.1 6.4-1 1-3.7 2.7-6.6 4.1-2.7 1.4-6.8 3.1-9 3.8-2.2 0.7-6.4 1.8-9.2 2.3-2.8 0.6-7.4 1.3-10.2 1.6-3.1 0.3-8.2 0.4-13 0.2-5-0.2-9.8-0.6-13-1.1-2.8-0.5-6.3-1.2-7.7-1.6-1.4-0.4-3.9-1.1-5.6-1.7-1.6-0.6-4.3-1.8-5.9-2.6-1.7-0.8-4.3-2.3-5.9-3.4-2.3-1.5-3-2.2-3.8-3.9-0.4-1.1-1.5-4.5-2.3-7.5-0.8-3.1-1.5-6.5-1.7-7.6zm15.8 38.3c-0.9-1.3-1.1-2-0.7-1.8 0.4 0.2 2.2 0.9 4.1 1.6 1.9 0.6 5.2 1.5 7.3 2 2.1 0.5 5.8 1.2 8.3 1.6 2.5 0.3 7.7 0.7 11.7 0.9 4.6 0.2 9.2 0.1 12.6-0.2 2.9-0.3 7.6-1 10.5-1.5 2.8-0.6 7.1-1.7 9.6-2.5 2.4-0.9 4.8-1.7 5.3-1.9 0.5-0.2-0.3 1-1.9 3-1.6 1.9-4.3 5-6.2 7-1.9 2-5.5 5.4-7.9 7.5-2.5 2.1-6.7 5.5-9.4 7.5-2.7 2-6 4.3-9.6 6.8l-2.5-1.8c-1.4-1-5.2-3.7-8.3-6.2-3.2-2.4-7.8-6.1-10.3-8.3-2.4-2.1-6-5.7-7.9-7.8-1.9-2.1-4-4.8-4.7-5.9z"/><path fill="#E2E8F0" d="m108.2 520.4v17.8q0 11.3-2.1 19.8-2 8.4-5.8 14.1-3.7 5.6-9 8.5-5.2 2.9-11.6 2.9-6.3 0-11.6-2.9-5.3-2.9-9.1-8.5-3.8-5.7-5.9-14.1-2-8.5-2-19.8v-17.8q0-11.6 2-20.2 2.1-8.8 5.9-14.5 3.8-5.9 9-8.8 5.3-3 11.6-3 6.4 0 11.6 3 5.3 2.9 9.1 8.8 3.8 5.7 5.8 14.5 2.1 8.6 2.1 20.2zm-15.9 17.8v-17.9q0-7.7-0.9-13-0.7-5.4-2.4-8.8-1.6-3.5-4-5.1-2.3-1.7-5.4-1.7-3.1 0-5.5 1.7-2.3 1.6-4 5.1-1.5 3.4-2.4 8.8-0.7 5.3-0.7 13v17.9q0 7.3 0.8 12.6 0.8 5.2 2.4 8.5 1.7 3.2 4 4.8 2.4 1.6 5.5 1.6 3.1 0 5.4-1.6 2.4-1.6 3.9-4.8 1.7-3.3 2.5-8.5 0.8-5.3 0.8-12.6zm69.4-62.9h15.2v106.7h-15.4l-24.9-66.7v66.7h-15.2v-106.7h15.2l25.1 67.5zm40.8 88.9h34.4v17.8h-34.4zm-11.1-88.9h16v106.6h-16zm11.1 43.2h29.8v17.3h-29.8zm0-43.2h34.3v17.8h-34.3zm84.7 0h15.8v106.7h-15.8zm-19.4 0h54.9v17.8h-54.9zm77.1 43.2h32.5v17.8h-32.5zm-11.5-43.2h16v106.6h-16zm39.8 0h15.8v106.7h-15.8zm86 45.1v17.8q0 11.2-2.1 19.7-2 8.5-5.8 14.2-3.7 5.6-9 8.5-5.2 2.8-11.6 2.8-6.3 0-11.6-2.8-5.3-2.9-9.1-8.5-3.8-5.7-5.9-14.2-2-8.5-2-19.7v-17.8q0-11.6 2-20.3 2.1-8.7 5.9-14.5 3.8-5.8 9-8.8 5.3-3 11.6-3 6.4 0 11.6 3 5.3 3 9.1 8.8 3.8 5.8 5.8 14.5 2.1 8.7 2.1 20.3zm-15.9 17.8v-18q0-7.6-0.9-13-0.7-5.4-2.4-8.7-1.6-3.5-4-5.1-2.3-1.7-5.4-1.7-3.1 0-5.5 1.7-2.3 1.6-4 5.1-1.5 3.3-2.4 8.7-0.7 5.4-0.7 13v18q0 7.3 0.8 12.6 0.8 5.1 2.4 8.5 1.7 3.2 4 4.8 2.4 1.5 5.5 1.5 3.1 0 5.4-1.5 2.4-1.6 3.9-4.8 1.7-3.4 2.5-8.5 0.8-5.3 0.8-12.6zm64.7 10.4v-73.3h16v73.3q0 12.3-3.4 20-3.3 7.7-9.3 11.3-5.8 3.5-13.4 3.5-7.6 0-13.6-3.5-5.9-3.6-9.2-11.3-3.3-7.7-3.3-20v-73.3h15.9v73.3q0 6.9 1.2 10.7 1.2 3.7 3.4 5.1 2.3 1.3 5.6 1.3 3.4 0 5.6-1.3 2.2-1.4 3.4-5.1 1.1-3.8 1.1-10.7zm63 5.3q0-2.9-0.4-5.2-0.4-2.3-1.6-4.3-1.2-2-3.6-4-2.2-1.9-5.9-4.1-4.5-2.5-8.7-5.2-4.1-2.9-7.4-6.6-3.3-3.8-5.3-8.8-1.8-5.2-1.8-12.1 0-6.7 1.7-12.2 1.9-5.5 5.2-9.4 3.4-3.9 8-6 4.6-2.2 10.1-2.2 7.7 0 13.2 4.3 5.6 4.2 8.7 11.6 3.1 7.4 3.1 17h-15.9q0-4.5-1-8-0.9-3.4-3-5.4-2-2-5.3-2-3.1 0-5.1 1.7-1.9 1.6-2.9 4.4-1 2.8-1 6.3 0 2.7 1 4.8 1 2 2.6 3.7 1.7 1.7 4 3.3 2.4 1.5 5.2 2.9 5.3 2.9 9.4 6.3 4.2 3.3 6.9 7.6 2.9 4.2 4.3 9.5 1.4 5.3 1.4 12 0 6.7-1.7 12.1-1.7 5.4-5 9.4-3.2 3.9-7.9 6-4.6 2.1-10.2 2.1-5.5 0-10.4-2-4.9-2.1-8.7-6.4-3.7-4.3-5.8-10.9-2.1-6.7-2.1-15.7h15.9q0 4.8 0.7 8.2 0.7 3.4 2.1 5.4 1.6 2.1 3.7 3.1 2.1 0.9 5 0.9 3.1 0 5-1.6 1.9-1.6 2.7-4.3 0.8-2.8 0.8-6.2zm58.6-78.6l-1.4 19-17.1 87.7h-16.9l24.8-106.7zm29 106.7h-16.9l-17.2-87.7-1.6-19h10.7zm-52.1-39.8h35.8v17.8h-35.8zm101.3-66.9h15.2v106.7h-15.5l-24.8-66.7v66.7h-15.2v-106.7h15.2l25.1 67.5zm50.4 106.7h-14l0.1-17.8h13.9q5.8 0 9-2.8 3.2-2.7 4.5-8.7 1.4-6 1.4-15.8v-16.6q0-7.4-0.8-12.6-0.7-5.2-2.4-8.3-1.6-3.3-4.4-4.8-2.9-1.5-7.1-1.5h-14.4v-17.8h14.4q6.9 0 12.5 3.1 5.6 2.9 9.7 8.7 4 5.7 6.2 14.2 2.1 8.3 2.1 19.1v16.5q0 10.8-2.1 19.2-2.2 8.3-6.2 14.1-4.1 5.7-9.7 8.8-5.7 3-12.7 3zm-20.7-106.7h16v106.7h-16z"/><path fill="#E2E8F0" d="m79.1 702h-14.5l0.1-14.7h14.4q5.9 0 9.2-2.3 3.4-2.2 4.7-7.2 1.4-5 1.4-13v-13.8q0-6.1-0.8-10.3-0.7-4.4-2.5-6.9-1.6-2.7-4.6-4-2.9-1.2-7.3-1.2h-14.9v-14.8h14.9q7.2 0 13 2.6 5.8 2.4 9.9 7.2 4.2 4.7 6.4 11.7 2.3 6.9 2.3 15.8v13.7q0 8.9-2.3 15.8-2.2 6.9-6.4 11.7-4.1 4.7-10 7.2-5.8 2.5-13 2.5zm-21.5-88.2h16.5v88.2h-16.5zm78.1 88.2v-88.2h26.3q8.2 0 14 3 5.8 3.1 8.9 9 3.1 5.9 3.1 14.6 0 7.2-1.8 12.3-1.8 5-5.1 8.4-3.3 3.3-7.9 5.3l-5.1 3.2h-21.3l-0.1-14.7h14.9q3.3 0 5.5-1.6 2.3-1.6 3.3-4.5 1.2-3 1.2-6.9 0-4.2-1-7.2-1-3-3.1-4.6-2.1-1.6-5.5-1.6h-9.8v73.5zm54.9 0h-17.7l-15-39.3 17.3-0.1 15.4 38.5zm78.6-50.9v14.7q0 9.3-2.1 16.3-2.1 7-6 11.7-3.8 4.7-9.3 7.1-5.4 2.3-11.9 2.3-6.6 0-12.1-2.3-5.4-2.4-9.3-7.1-4-4.7-6.1-11.7-2.1-7-2.1-16.3v-14.7q0-9.6 2-16.7 2.2-7.2 6.1-12 3.9-4.9 9.3-7.3 5.5-2.5 12.1-2.5 6.5 0 11.9 2.5 5.5 2.4 9.4 7.3 3.9 4.8 6 12 2.1 7.1 2.1 16.7zm-16.3 14.7v-14.8q0-6.3-0.9-10.8-0.8-4.4-2.5-7.2-1.7-2.9-4.2-4.2-2.4-1.4-5.5-1.4-3.3 0-5.7 1.4-2.5 1.3-4.2 4.2-1.6 2.8-2.4 7.2-0.8 4.5-0.8 10.8v14.8q0 6 0.8 10.4 0.9 4.3 2.6 7 1.6 2.7 4.1 4 2.4 1.3 5.7 1.3 3.1 0 5.5-1.3 2.5-1.3 4.1-4 1.7-2.7 2.5-7 0.9-4.4 0.9-10.4zm82.4-51.9h15.6v88.1h-15.9l-25.7-55.1v55.1h-15.7v-88.1h15.8l25.9 55.7zm52.7 73.5h35.7v14.7h-35.7zm-11.4-73.5h16.5v88.2h-16.5zm11.4 35.7h30.9v14.2h-30.9zm0-35.7h35.5v14.7h-35.5zm92.3 65q0-2.4-0.4-4.3-0.4-1.9-1.7-3.6-1.2-1.6-3.6-3.2-2.4-1.7-6.2-3.4-4.6-2.1-8.9-4.4-4.2-2.4-7.7-5.4-3.4-3.1-5.4-7.3-2-4.3-2-9.9 0-5.6 1.9-10.1 1.9-4.6 5.3-7.8 3.5-3.3 8.2-5 4.8-1.8 10.5-1.8 7.9 0 13.7 3.5 5.8 3.5 8.9 9.7 3.2 6.1 3.2 14h-16.4q0-3.7-1-6.6-1-2.9-3.1-4.5-2.1-1.6-5.5-1.6-3.2 0-5.3 1.3-2 1.4-3 3.7-1 2.3-1 5.2 0 2.2 1 4 1 1.6 2.8 3.1 1.7 1.3 4.1 2.6 2.4 1.3 5.3 2.4 5.5 2.4 9.8 5.2 4.3 2.8 7.1 6.3 2.9 3.5 4.4 7.9 1.5 4.3 1.5 9.9 0 5.5-1.8 10-1.8 4.5-5.2 7.8-3.3 3.2-8.1 5-4.7 1.7-10.6 1.7-5.7 0-10.8-1.7-5-1.7-8.9-5.3-3.8-3.6-6-9-2.2-5.5-2.2-13h16.5q0 4 0.6 6.8 0.8 2.8 2.3 4.5 1.6 1.7 3.8 2.5 2.2 0.8 5.1 0.8 3.3 0 5.2-1.3 1.9-1.4 2.8-3.6 0.8-2.3 0.8-5.1zm40.6 8.3h13.7v11.9q0 6.9-3.2 13.8-3.1 6.9-7.9 11.4l-8.5-4.8q1.4-2.7 2.8-5.5 1.3-2.9 2.2-6.3 0.9-3.4 0.9-7.7zm90.2 0.2h34.1v14.7h-34.1zm-11.5-73.5h16.5v88.1h-16.5zm79.5 73.5h34.1v14.7h-34.1zm-11.5-73.5h16.5v88.2h-16.5zm103.1 58.7h16.4q-0.3 10-3.8 16.8-3.3 6.8-9.5 10.3-6.2 3.5-15 3.5-6.8 0-12.2-2.4-5.2-2.5-8.9-7.3-3.7-4.8-5.7-11.8-1.8-7.1-1.8-16.2v-15q0-9.2 2-16.2 2-7.2 5.7-12 3.7-4.8 9.1-7.2 5.3-2.5 12-2.5 9 0 15 3.6 6 3.6 9.3 10.6 3.3 6.9 3.9 16.9h-16.4q-0.2-6.3-1.3-9.9-1.1-3.6-3.7-5-2.4-1.5-6.8-1.5-3.3 0-5.7 1.2-2.3 1.2-3.8 4-1.5 2.7-2.3 7.2-0.6 4.3-0.6 10.6v15.2q0 6.2 0.6 10.6 0.6 4.4 2 7.1 1.3 2.8 3.6 4.1 2.4 1.3 6 1.3 4.2 0 6.7-1.3 2.6-1.4 3.8-4.8 1.2-3.5 1.4-9.9z"/></svg>